<svg xmlns="http://www.w3.org/2000/svg" viewBox="0 0 165 165" role="img" aria-label="TEMPO House">
  <defs>
    <clipPath id="m">
      <path clip-rule="nonzero" d="M 82.5 161.335938 C 73.363281 161.335938 64.601562 159.765625 56.441406 156.90625 C 57.605469 155.28125 59.753906 152.613281 62.960938 149.894531 C 68.035156 145.59375 75.679688 141.160156 86.371094 140.308594 C 88.277344 140.15625 90.15625 140.09375 92.007812 140.09375 C 100.839844 140.085938 109.214844 141.539062 117.714844 141.550781 C 122.902344 141.550781 128.152344 140.992188 133.484375 139.140625 C 135.777344 138.347656 138.078125 137.300781 140.390625 135.988281 C 125.988281 151.570312 105.386719 161.335938 82.496094 161.335938 M 146.863281 126.058594 C 141.738281 130.722656 136.886719 133.511719 132.113281 135.167969 C 127.339844 136.820312 122.609375 137.34375 117.71875 137.34375 C 109.714844 137.355469 101.296875 135.898438 92.011719 135.890625 C 90.0625 135.890625 88.070312 135.953125 86.042969 136.117188 C 74.140625 137.054688 65.535156 142.113281 59.976562 146.910156 C 55.9375 150.398438 53.476562 153.734375 52.390625 155.367188 C 44.15625 151.960938 36.632812 147.203125 30.082031 141.363281 C 31.875 141.027344 34.148438 140.429688 36.71875 139.355469 C 42.25 137.058594 49.121094 132.550781 55.277344 123.957031 C 59.71875 117.769531 64.964844 113.1875 71.15625 110.117188 C 77.351562 107.046875 84.523438 105.476562 92.863281 105.476562 C 98.769531 105.476562 105.253906 106.269531 112.34375 107.882812 C 119.652344 109.539062 126.105469 110.34375 131.839844 110.34375 C 139.953125 110.347656 146.640625 108.71875 152.066406 105.574219 C 154.882812 103.945312 157.335938 101.914062 159.46875 99.542969 C 157.601562 107.992188 154.398438 115.9375 150.0625 123.136719 Z M 6.761719 104.371094 C 9.828125 105.859375 14.5625 107.234375 21.515625 107.230469 C 24.40625 107.230469 27.683594 106.992188 31.382812 106.433594 C 37 105.582031 42.039062 103.589844 46.6875 101.027344 C 53.660156 97.175781 59.796875 92.054688 65.929688 87.378906 C 72.0625 82.691406 78.171875 78.457031 84.972656 76.179688 C 87.917969 75.195312 90.714844 74.789062 93.476562 74.789062 C 100.035156 74.777344 106.433594 77.132812 113.195312 79.628906 C 119.949219 82.109375 127.074219 84.71875 135.089844 84.726562 C 136.09375 84.726562 137.109375 84.683594 138.140625 84.597656 C 143.347656 84.15625 147.523438 82.703125 150.800781 80.742188 C 155.726562 77.800781 158.582031 73.761719 160.183594 70.496094 C 160.246094 70.363281 160.296875 70.242188 160.359375 70.113281 C 161 74.148438 161.335938 78.285156 161.335938 82.503906 C 161.335938 85.132812 161.199219 87.726562 160.949219 90.289062 L 160.878906 90.148438 C 158.136719 95.300781 154.617188 99.230469 149.953125 101.933594 C 145.289062 104.636719 139.402344 106.136719 131.835938 106.136719 C 126.5 106.136719 120.347656 105.382812 113.273438 103.777344 C 105.9375 102.109375 99.144531 101.269531 92.863281 101.269531 C 84 101.269531 76.136719 102.953125 69.289062 106.347656 C 62.4375 109.738281 56.640625 114.839844 51.855469 121.507812 C 46.148438 129.457031 39.984375 133.433594 35.097656 135.476562 C 30.257812 137.496094 26.664062 137.589844 26.125 137.589844 C 17.152344 128.410156 10.417969 117.046875 6.761719 104.371094 M 6.492188 61.578125 C 7.332031 62.328125 8.40625 63.179688 9.746094 64.027344 C 13.414062 66.355469 19.054688 68.644531 26.789062 68.636719 C 33.171875 68.636719 40.960938 67.089844 50.25 62.851562 C 59.65625 58.5625 67.609375 54.496094 75.074219 51.542969 C 82.542969 48.585938 89.488281 46.738281 97.039062 46.734375 C 106.960938 46.738281 118.121094 49.929688 132.988281 58.542969 L 132.980469 58.535156 C 137.421875 61.152344 141.617188 62.160156 145.304688 62.15625 C 150.214844 62.15625 154.15625 60.410156 156.847656 58.695312 C 157.101562 58.53125 157.3125 58.390625 157.523438 58.253906 C 157.835938 59.21875 158.125 60.195312 158.398438 61.175781 C 158.347656 62.3125 158.046875 63.875 158.042969 63.90625 C 157.988281 63.898438 157.390625 67.816406 154.566406 71.699219 C 153.15625 73.648438 151.214844 75.613281 148.515625 77.199219 C 145.820312 78.789062 142.339844 80.003906 137.78125 80.402344 C 136.878906 80.480469 135.980469 80.515625 135.089844 80.515625 C 128.015625 80.523438 121.394531 78.167969 114.644531 75.675781 C 107.90625 73.203125 101.042969 70.589844 93.476562 70.578125 C 90.304688 70.578125 87.019531 71.054688 83.636719 72.1875 C 73.550781 75.589844 65.414062 82.515625 57.207031 88.800781 C 53.105469 91.953125 48.992188 94.949219 44.65625 97.339844 C 40.320312 99.730469 35.777344 101.511719 30.753906 102.273438 C 27.242188 102.804688 24.175781 103.023438 21.515625 103.023438 C 14.988281 103.019531 10.882812 101.722656 8.449219 100.519531 C 7.230469 99.917969 6.425781 99.332031 5.941406 98.925781 C 5.703125 98.722656 5.542969 98.5625 5.453125 98.46875 L 5.371094 98.378906 L 5.367188 98.375 L 5.230469 98.214844 C 4.203125 93.136719 3.660156 87.882812 3.660156 82.507812 C 3.660156 75.261719 4.660156 68.25 6.488281 61.585938 M 119.476562 12.871094 C 117.363281 12.601562 115.058594 12.433594 112.621094 12.433594 C 105.632812 12.433594 97.519531 13.816406 89.695312 18.199219 C 83.125 21.878906 77.074219 25.492188 70.957031 28.148438 C 64.832031 30.808594 58.667969 32.523438 51.730469 32.527344 C 50.277344 32.527344 48.78125 32.453125 47.246094 32.292969 C 39.015625 31.429688 33.808594 29.492188 30.703125 27.84375 C 29.273438 27.085938 28.304688 26.394531 27.671875 25.878906 C 41.859375 12.136719 61.183594 3.660156 82.5 3.660156 C 95.863281 3.660156 108.449219 7 119.476562 12.871094 M 156.046875 54.113281 C 155.386719 54.628906 154.570312 55.195312 153.605469 55.734375 C 151.464844 56.925781 148.652344 57.953125 145.300781 57.953125 C 142.367188 57.949219 138.980469 57.183594 135.105469 54.910156 L 135.09375 54.902344 C 119.855469 46.066406 107.90625 42.527344 97.035156 42.527344 C 88.777344 42.527344 81.253906 44.5625 73.519531 47.628906 C 65.785156 50.695312 57.808594 54.78125 48.503906 59.023438 C 39.660156 63.054688 32.488281 64.429688 26.789062 64.429688 C 19.886719 64.429688 15.101562 62.425781 12 60.46875 C 10.453125 59.488281 9.335938 58.515625 8.617188 57.804688 C 8.289062 57.480469 8.054688 57.222656 7.894531 57.03125 C 11.496094 46.464844 17.277344 36.910156 24.714844 28.898438 C 25.558594 29.617188 26.851562 30.5625 28.734375 31.5625 C 32.359375 33.488281 38.117188 35.566406 46.8125 36.476562 C 48.492188 36.652344 50.132812 36.734375 51.734375 36.734375 C 59.382812 36.738281 66.175781 34.816406 72.632812 32.007812 C 79.097656 29.199219 85.246094 25.507812 91.753906 21.871094 C 98.8125 17.914062 106.179688 16.640625 112.621094 16.640625 C 118.632812 16.640625 123.824219 17.761719 127.03125 18.789062 L 127.035156 18.804688 L 130.625 20.082031 C 141.941406 28.816406 150.8125 40.5625 156.046875 54.117188 M 82.5 0.320312 C 37.113281 0.320312 0.320312 37.113281 0.320312 82.5 C 0.320312 127.886719 37.113281 164.675781 82.5 164.675781 C 127.886719 164.675781 164.679688 127.886719 164.679688 82.5 C 164.679688 37.113281 127.886719 0.320312 82.5 0.320312"/>
    </clipPath>
  </defs>
  <rect width="165" height="165" fill="#ffffff" clip-path="url(#m)"/>
</svg>
