<svg xmlns="http://www.w3.org/2000/svg" xmlns:xlink="http://www.w3.org/1999/xlink" width="500" zoomAndPan="magnify" viewBox="0 0 375 374.999991" height="500" preserveAspectRatio="xMidYMid meet" version="1.0"><defs><clipPath id="7f2b1a1c7f"><path d="M 105.320312 105.320312 L 270 105.320312 L 270 269.679688 L 105.320312 269.679688 Z M 105.320312 105.320312 " clip-rule="nonzero"/></clipPath><clipPath id="3ef4812add"><path d="M 187.5 266.335938 C 178.363281 266.335938 169.601562 264.765625 161.441406 261.90625 C 162.605469 260.28125 164.753906 257.613281 167.960938 254.894531 C 173.035156 250.59375 180.679688 246.160156 191.371094 245.308594 C 193.277344 245.15625 195.15625 245.09375 197.007812 245.09375 C 205.839844 245.085938 214.214844 246.539062 222.714844 246.550781 C 227.902344 246.550781 233.152344 245.992188 238.484375 244.140625 C 240.777344 243.347656 243.078125 242.300781 245.390625 240.988281 C 230.988281 256.570312 210.386719 266.335938 187.496094 266.335938 M 251.863281 231.058594 C 246.738281 235.722656 241.886719 238.511719 237.113281 240.167969 C 232.339844 241.820312 227.609375 242.34375 222.71875 242.34375 C 214.714844 242.355469 206.296875 240.898438 197.011719 240.890625 C 195.0625 240.890625 193.070312 240.953125 191.042969 241.117188 C 179.140625 242.054688 170.535156 247.113281 164.976562 251.910156 C 160.9375 255.398438 158.476562 258.734375 157.390625 260.367188 C 149.15625 256.960938 141.632812 252.203125 135.082031 246.363281 C 136.875 246.027344 139.148438 245.429688 141.71875 244.355469 C 147.25 242.058594 154.121094 237.550781 160.277344 228.957031 C 164.71875 222.769531 169.964844 218.1875 176.15625 215.117188 C 182.351562 212.046875 189.523438 210.476562 197.863281 210.476562 C 203.769531 210.476562 210.253906 211.269531 217.34375 212.882812 C 224.652344 214.539062 231.105469 215.34375 236.839844 215.34375 C 244.953125 215.347656 251.640625 213.71875 257.066406 210.574219 C 259.882812 208.945312 262.335938 206.914062 264.46875 204.542969 C 262.601562 212.992188 259.398438 220.9375 255.0625 228.136719 Z M 111.761719 209.371094 C 114.828125 210.859375 119.5625 212.234375 126.515625 212.230469 C 129.40625 212.230469 132.683594 211.992188 136.382812 211.433594 C 142 210.582031 147.039062 208.589844 151.6875 206.027344 C 158.660156 202.175781 164.796875 197.054688 170.929688 192.378906 C 177.0625 187.691406 183.171875 183.457031 189.972656 181.179688 C 192.917969 180.195312 195.714844 179.789062 198.476562 179.789062 C 205.035156 179.777344 211.433594 182.132812 218.195312 184.628906 C 224.949219 187.109375 232.074219 189.71875 240.089844 189.726562 C 241.09375 189.726562 242.109375 189.683594 243.140625 189.597656 C 248.347656 189.15625 252.523438 187.703125 255.800781 185.742188 C 260.726562 182.800781 263.582031 178.761719 265.183594 175.496094 C 265.246094 175.363281 265.296875 175.242188 265.359375 175.113281 C 266 179.148438 266.335938 183.285156 266.335938 187.503906 C 266.335938 190.132812 266.199219 192.726562 265.949219 195.289062 L 265.878906 195.148438 C 263.136719 200.300781 259.617188 204.230469 254.953125 206.933594 C 250.289062 209.636719 244.402344 211.136719 236.835938 211.136719 C 231.5 211.136719 225.347656 210.382812 218.273438 208.777344 C 210.9375 207.109375 204.144531 206.269531 197.863281 206.269531 C 189 206.269531 181.136719 207.953125 174.289062 211.347656 C 167.4375 214.738281 161.640625 219.839844 156.855469 226.507812 C 151.148438 234.457031 144.984375 238.433594 140.097656 240.476562 C 135.257812 242.496094 131.664062 242.589844 131.125 242.589844 C 122.152344 233.410156 115.417969 222.046875 111.761719 209.371094 M 111.492188 166.578125 C 112.332031 167.328125 113.40625 168.179688 114.746094 169.027344 C 118.414062 171.355469 124.054688 173.644531 131.789062 173.636719 C 138.171875 173.636719 145.960938 172.089844 155.25 167.851562 C 164.65625 163.5625 172.609375 159.496094 180.074219 156.542969 C 187.542969 153.585938 194.488281 151.738281 202.039062 151.734375 C 211.960938 151.738281 223.121094 154.929688 237.988281 163.542969 L 237.980469 163.535156 C 242.421875 166.152344 246.617188 167.160156 250.304688 167.15625 C 255.214844 167.15625 259.15625 165.410156 261.847656 163.695312 C 262.101562 163.53125 262.3125 163.390625 262.523438 163.253906 C 262.835938 164.21875 263.125 165.195312 263.398438 166.175781 C 263.347656 167.3125 263.046875 168.875 263.042969 168.90625 C 262.988281 168.898438 262.390625 172.816406 259.566406 176.699219 C 258.15625 178.648438 256.214844 180.613281 253.515625 182.199219 C 250.820312 183.789062 247.339844 185.003906 242.78125 185.402344 C 241.878906 185.480469 240.980469 185.515625 240.089844 185.515625 C 233.015625 185.523438 226.394531 183.167969 219.644531 180.675781 C 212.90625 178.203125 206.042969 175.589844 198.476562 175.578125 C 195.304688 175.578125 192.019531 176.054688 188.636719 177.1875 C 178.550781 180.589844 170.414062 187.515625 162.207031 193.800781 C 158.105469 196.953125 153.992188 199.949219 149.65625 202.339844 C 145.320312 204.730469 140.777344 206.511719 135.753906 207.273438 C 132.242188 207.804688 129.175781 208.023438 126.515625 208.023438 C 119.988281 208.019531 115.882812 206.722656 113.449219 205.519531 C 112.230469 204.917969 111.425781 204.332031 110.941406 203.925781 C 110.703125 203.722656 110.542969 203.5625 110.453125 203.46875 L 110.371094 203.378906 L 110.367188 203.375 L 110.230469 203.214844 C 109.203125 198.136719 108.660156 192.882812 108.660156 187.507812 C 108.660156 180.261719 109.660156 173.25 111.488281 166.585938 M 224.476562 117.871094 C 222.363281 117.601562 220.058594 117.433594 217.621094 117.433594 C 210.632812 117.433594 202.519531 118.816406 194.695312 123.199219 C 188.125 126.878906 182.074219 130.492188 175.957031 133.148438 C 169.832031 135.808594 163.667969 137.523438 156.730469 137.527344 C 155.277344 137.527344 153.78125 137.453125 152.246094 137.292969 C 144.015625 136.429688 138.808594 134.492188 135.703125 132.84375 C 134.273438 132.085938 133.304688 131.394531 132.671875 130.878906 C 146.859375 117.136719 166.183594 108.660156 187.5 108.660156 C 200.863281 108.660156 213.449219 112 224.476562 117.871094 M 261.046875 159.113281 C 260.386719 159.628906 259.570312 160.195312 258.605469 160.734375 C 256.464844 161.925781 253.652344 162.953125 250.300781 162.953125 C 247.367188 162.949219 243.980469 162.183594 240.105469 159.910156 L 240.09375 159.902344 C 224.855469 151.066406 212.90625 147.527344 202.035156 147.527344 C 193.777344 147.527344 186.253906 149.5625 178.519531 152.628906 C 170.785156 155.695312 162.808594 159.78125 153.503906 164.023438 C 144.660156 168.054688 137.488281 169.429688 131.789062 169.429688 C 124.886719 169.429688 120.101562 167.425781 117 165.46875 C 115.453125 164.488281 114.335938 163.515625 113.617188 162.804688 C 113.289062 162.480469 113.054688 162.222656 112.894531 162.03125 C 116.496094 151.464844 122.277344 141.910156 129.714844 133.898438 C 130.558594 134.617188 131.851562 135.5625 133.734375 136.5625 C 137.359375 138.488281 143.117188 140.566406 151.8125 141.476562 C 153.492188 141.652344 155.132812 141.734375 156.734375 141.734375 C 164.382812 141.738281 171.175781 139.816406 177.632812 137.007812 C 184.097656 134.199219 190.246094 130.507812 196.753906 126.871094 C 203.8125 122.914062 211.179688 121.640625 217.621094 121.640625 C 223.632812 121.640625 228.824219 122.761719 232.03125 123.789062 L 232.035156 123.804688 L 235.625 125.082031 C 246.941406 133.816406 255.8125 145.5625 261.046875 159.117188 M 187.5 105.320312 C 142.113281 105.320312 105.320312 142.113281 105.320312 187.5 C 105.320312 232.886719 142.113281 269.675781 187.5 269.675781 C 232.886719 269.675781 269.679688 232.886719 269.679688 187.5 C 269.679688 142.113281 232.886719 105.320312 187.5 105.320312 " clip-rule="nonzero"/></clipPath><clipPath id="6436fe55b9"><path d="M 0.320312 0.320312 L 164.761719 0.320312 L 164.761719 164.679688 L 0.320312 164.679688 Z M 0.320312 0.320312 " clip-rule="nonzero"/></clipPath><clipPath id="0256fb5b36"><path d="M 82.5 161.335938 C 73.363281 161.335938 64.601562 159.765625 56.441406 156.90625 C 57.605469 155.28125 59.753906 152.613281 62.960938 149.894531 C 68.035156 145.59375 75.679688 141.160156 86.371094 140.308594 C 88.277344 140.15625 90.15625 140.09375 92.007812 140.09375 C 100.839844 140.085938 109.214844 141.539062 117.714844 141.550781 C 122.902344 141.550781 128.152344 140.992188 133.484375 139.140625 C 135.777344 138.347656 138.078125 137.300781 140.390625 135.988281 C 125.988281 151.570312 105.386719 161.335938 82.496094 161.335938 M 146.863281 126.058594 C 141.738281 130.722656 136.886719 133.511719 132.113281 135.167969 C 127.339844 136.820312 122.609375 137.34375 117.71875 137.34375 C 109.714844 137.355469 101.296875 135.898438 92.011719 135.890625 C 90.0625 135.890625 88.070312 135.953125 86.042969 136.117188 C 74.140625 137.054688 65.535156 142.113281 59.976562 146.910156 C 55.9375 150.398438 53.476562 153.734375 52.390625 155.367188 C 44.15625 151.960938 36.632812 147.203125 30.082031 141.363281 C 31.875 141.027344 34.148438 140.429688 36.71875 139.355469 C 42.25 137.058594 49.121094 132.550781 55.277344 123.957031 C 59.71875 117.769531 64.964844 113.1875 71.15625 110.117188 C 77.351562 107.046875 84.523438 105.476562 92.863281 105.476562 C 98.769531 105.476562 105.253906 106.269531 112.34375 107.882812 C 119.652344 109.539062 126.105469 110.34375 131.839844 110.34375 C 139.953125 110.347656 146.640625 108.71875 152.066406 105.574219 C 154.882812 103.945312 157.335938 101.914062 159.46875 99.542969 C 157.601562 107.992188 154.398438 115.9375 150.0625 123.136719 Z M 6.761719 104.371094 C 9.828125 105.859375 14.5625 107.234375 21.515625 107.230469 C 24.40625 107.230469 27.683594 106.992188 31.382812 106.433594 C 37 105.582031 42.039062 103.589844 46.6875 101.027344 C 53.660156 97.175781 59.796875 92.054688 65.929688 87.378906 C 72.0625 82.691406 78.171875 78.457031 84.972656 76.179688 C 87.917969 75.195312 90.714844 74.789062 93.476562 74.789062 C 100.035156 74.777344 106.433594 77.132812 113.195312 79.628906 C 119.949219 82.109375 127.074219 84.71875 135.089844 84.726562 C 136.09375 84.726562 137.109375 84.683594 138.140625 84.597656 C 143.347656 84.15625 147.523438 82.703125 150.800781 80.742188 C 155.726562 77.800781 158.582031 73.761719 160.183594 70.496094 C 160.246094 70.363281 160.296875 70.242188 160.359375 70.113281 C 161 74.148438 161.335938 78.285156 161.335938 82.503906 C 161.335938 85.132812 161.199219 87.726562 160.949219 90.289062 L 160.878906 90.148438 C 158.136719 95.300781 154.617188 99.230469 149.953125 101.933594 C 145.289062 104.636719 139.402344 106.136719 131.835938 106.136719 C 126.5 106.136719 120.347656 105.382812 113.273438 103.777344 C 105.9375 102.109375 99.144531 101.269531 92.863281 101.269531 C 84 101.269531 76.136719 102.953125 69.289062 106.347656 C 62.4375 109.738281 56.640625 114.839844 51.855469 121.507812 C 46.148438 129.457031 39.984375 133.433594 35.097656 135.476562 C 30.257812 137.496094 26.664062 137.589844 26.125 137.589844 C 17.152344 128.410156 10.417969 117.046875 6.761719 104.371094 M 6.492188 61.578125 C 7.332031 62.328125 8.40625 63.179688 9.746094 64.027344 C 13.414062 66.355469 19.054688 68.644531 26.789062 68.636719 C 33.171875 68.636719 40.960938 67.089844 50.25 62.851562 C 59.65625 58.5625 67.609375 54.496094 75.074219 51.542969 C 82.542969 48.585938 89.488281 46.738281 97.039062 46.734375 C 106.960938 46.738281 118.121094 49.929688 132.988281 58.542969 L 132.980469 58.535156 C 137.421875 61.152344 141.617188 62.160156 145.304688 62.15625 C 150.214844 62.15625 154.15625 60.410156 156.847656 58.695312 C 157.101562 58.53125 157.3125 58.390625 157.523438 58.253906 C 157.835938 59.21875 158.125 60.195312 158.398438 61.175781 C 158.347656 62.3125 158.046875 63.875 158.042969 63.90625 C 157.988281 63.898438 157.390625 67.816406 154.566406 71.699219 C 153.15625 73.648438 151.214844 75.613281 148.515625 77.199219 C 145.820312 78.789062 142.339844 80.003906 137.78125 80.402344 C 136.878906 80.480469 135.980469 80.515625 135.089844 80.515625 C 128.015625 80.523438 121.394531 78.167969 114.644531 75.675781 C 107.90625 73.203125 101.042969 70.589844 93.476562 70.578125 C 90.304688 70.578125 87.019531 71.054688 83.636719 72.1875 C 73.550781 75.589844 65.414062 82.515625 57.207031 88.800781 C 53.105469 91.953125 48.992188 94.949219 44.65625 97.339844 C 40.320312 99.730469 35.777344 101.511719 30.753906 102.273438 C 27.242188 102.804688 24.175781 103.023438 21.515625 103.023438 C 14.988281 103.019531 10.882812 101.722656 8.449219 100.519531 C 7.230469 99.917969 6.425781 99.332031 5.941406 98.925781 C 5.703125 98.722656 5.542969 98.5625 5.453125 98.46875 L 5.371094 98.378906 L 5.367188 98.375 L 5.230469 98.214844 C 4.203125 93.136719 3.660156 87.882812 3.660156 82.507812 C 3.660156 75.261719 4.660156 68.25 6.488281 61.585938 M 119.476562 12.871094 C 117.363281 12.601562 115.058594 12.433594 112.621094 12.433594 C 105.632812 12.433594 97.519531 13.816406 89.695312 18.199219 C 83.125 21.878906 77.074219 25.492188 70.957031 28.148438 C 64.832031 30.808594 58.667969 32.523438 51.730469 32.527344 C 50.277344 32.527344 48.78125 32.453125 47.246094 32.292969 C 39.015625 31.429688 33.808594 29.492188 30.703125 27.84375 C 29.273438 27.085938 28.304688 26.394531 27.671875 25.878906 C 41.859375 12.136719 61.183594 3.660156 82.5 3.660156 C 95.863281 3.660156 108.449219 7 119.476562 12.871094 M 156.046875 54.113281 C 155.386719 54.628906 154.570312 55.195312 153.605469 55.734375 C 151.464844 56.925781 148.652344 57.953125 145.300781 57.953125 C 142.367188 57.949219 138.980469 57.183594 135.105469 54.910156 L 135.09375 54.902344 C 119.855469 46.066406 107.90625 42.527344 97.035156 42.527344 C 88.777344 42.527344 81.253906 44.5625 73.519531 47.628906 C 65.785156 50.695312 57.808594 54.78125 48.503906 59.023438 C 39.660156 63.054688 32.488281 64.429688 26.789062 64.429688 C 19.886719 64.429688 15.101562 62.425781 12 60.46875 C 10.453125 59.488281 9.335938 58.515625 8.617188 57.804688 C 8.289062 57.480469 8.054688 57.222656 7.894531 57.03125 C 11.496094 46.464844 17.277344 36.910156 24.714844 28.898438 C 25.558594 29.617188 26.851562 30.5625 28.734375 31.5625 C 32.359375 33.488281 38.117188 35.566406 46.8125 36.476562 C 48.492188 36.652344 50.132812 36.734375 51.734375 36.734375 C 59.382812 36.738281 66.175781 34.816406 72.632812 32.007812 C 79.097656 29.199219 85.246094 25.507812 91.753906 21.871094 C 98.8125 17.914062 106.179688 16.640625 112.621094 16.640625 C 118.632812 16.640625 123.824219 17.761719 127.03125 18.789062 L 127.035156 18.804688 L 130.625 20.082031 C 141.941406 28.816406 150.8125 40.5625 156.046875 54.117188 M 82.5 0.320312 C 37.113281 0.320312 0.320312 37.113281 0.320312 82.5 C 0.320312 127.886719 37.113281 164.675781 82.5 164.675781 C 127.886719 164.675781 164.679688 127.886719 164.679688 82.5 C 164.679688 37.113281 127.886719 0.320312 82.5 0.320312 " clip-rule="nonzero"/></clipPath><clipPath id="3edb4fc178"><rect x="0" width="165" y="0" height="165"/></clipPath></defs><g clip-path="url(#7f2b1a1c7f)"><g clip-path="url(#3ef4812add)"><g transform="matrix(1, 0, 0, 1, 105, 105)"><g clip-path="url(#3edb4fc178)"><g clip-path="url(#6436fe55b9)"><g clip-path="url(#0256fb5b36)"><path fill="#7c3b3b" d="M 0.320312 0.320312 L 164.679688 0.320312 L 164.679688 164.679688 L 0.320312 164.679688 Z M 0.320312 0.320312 " fill-opacity="1" fill-rule="nonzero"/></g></g></g></g></g></g></svg>